HIERARCHY
ROOT hip
{
  OFFSET 0.0 0.0 0.0
  CHANNELS 6 Xposition Yposition Zposition Zrotation Yrotation Xrotation
  JOINT abdomen
  {
    OFFSET 0.0 20.6881 -0.73152
    CHANNELS 3 Zrotation Xrotation Yrotation
    JOINT chest
    {
      OFFSET 0.0 11.7043 -0.48768
      CHANNELS 3 Zrotation Xrotation Yrotation
      JOINT neck
      {
        OFFSET 0.0 22.1894 -2.19456
        CHANNELS 3 Zrotation Xrotation Yrotation
        JOINT head
        {
          OFFSET -0.24384 7.07133 1.2192
          CHANNELS 3 Zrotation Xrotation Yrotation
          JOINT leftEye
          {
            OFFSET 4.14528 8.04674 8.04672
            CHANNELS 3 Zrotation Xrotation Yrotation
            End Site
            {
              OFFSET 1.0 0.0 0.0
            }
          }
          JOINT rightEye
          {
            OFFSET -3.6576 8.04674 8.04672
            CHANNELS 3 Zrotation Xrotation Yrotation
            End Site
            {
              OFFSET 1.0 0.0 0.0
            }
          }
        }
      }
      JOINT rCollar
      {
        OFFSET -2.68224 19.2634 -4.8768
        CHANNELS 3 Zrotation Xrotation Yrotation
        JOINT rShldr
        {
          OFFSET -8.77824 -1.95073 1.46304
          CHANNELS 3 Zrotation Xrotation Yrotation
          JOINT rForeArm
          {
            OFFSET -28.1742 -1.7115 0.48768
            CHANNELS 3 Zrotation Xrotation Yrotation
            JOINT rHand
            {
              OFFSET -22.5879 0.773209 7.07136
              CHANNELS 3 Zrotation Xrotation Yrotation
              JOINT rThumb1
              {
                OFFSET -1.2192 -0.487915 3.41376
                CHANNELS 3 Zrotation Xrotation Yrotation
                JOINT rThumb2
                {
                  OFFSET -3.37035 -0.52449 3.41376
                  CHANNELS 3 Zrotation Xrotation Yrotation
                  End Site
                  {
                    OFFSET -1.78271 -1.18214 1.43049
                  }
                }
              }
              JOINT rIndex1
              {
                OFFSET -7.75947 0.938293 5.60832
                CHANNELS 3 Zrotation Xrotation Yrotation
                JOINT rIndex2
                {
                  OFFSET -2.54057 -0.884171 1.56538
                  CHANNELS 3 Zrotation Xrotation Yrotation
                  End Site
                  {
                    OFFSET -1.62519 -0.234802 1.16502
                  }
                }
              }
              JOINT rMid1
              {
                OFFSET -8.24714 1.18213 3.41376
                CHANNELS 3 Zrotation Xrotation Yrotation
                JOINT rMid2
                {
                  OFFSET -3.10165 -0.590103 1.0647
                  CHANNELS 3 Zrotation Xrotation Yrotation
                  End Site
                  {
                    OFFSET -2.48547 -0.328903 0.83742
                  }
                }
              }
              JOINT rRing1
              {
                OFFSET -8.82822 0.546677 1.51678
                CHANNELS 3 Zrotation Xrotation Yrotation
                JOINT rRing2
                {
                  OFFSET -2.60934 -0.819778 -0.0198488
                  CHANNELS 3 Zrotation Xrotation Yrotation
                  End Site
                  {
                    OFFSET -2.33842 -0.294052 0.168128
                  }
                }
              }
              JOINT rPinky1
              {
                OFFSET -8.27202 -0.0477905 -0.4584
                CHANNELS 3 Zrotation Xrotation Yrotation
                JOINT rPinky2
                {
                  OFFSET -1.82734 -0.647385 -0.700984
                  CHANNELS 3 Zrotation Xrotation Yrotation
                  End Site
                  {
                    OFFSET -1.69225 -0.51767 -0.607171
                  }
                }
              }
            }
          }
        }
      }
      JOINT lCollar
      {
        OFFSET 2.68224 19.2634 -4.8768
        CHANNELS 3 Zrotation Xrotation Yrotation
        JOINT lShldr
        {
          OFFSET 8.77824 -1.95073 1.46304
          CHANNELS 3 Zrotation Xrotation Yrotation
          JOINT lForeArm
          {
            OFFSET 28.1742 -1.7115 0.48768
            CHANNELS 3 Zrotation Xrotation Yrotation
            JOINT lHand
            {
              OFFSET 22.5879 0.773209 7.07136
              CHANNELS 3 Zrotation Xrotation Yrotation
              JOINT lThumb1
              {
                OFFSET 1.2192 -0.487915 3.41376
                CHANNELS 3 Zrotation Xrotation Yrotation
                JOINT lThumb2
                {
                  OFFSET 3.37035 -0.52449 3.41376
                  CHANNELS 3 Zrotation Xrotation Yrotation
                  End Site
                  {
                    OFFSET 1.78271 -1.18214 1.43049
                  }
                }
              }
              JOINT lIndex1
              {
                OFFSET 7.75947 0.938293 5.60832
                CHANNELS 3 Zrotation Xrotation Yrotation
                JOINT lIndex2
                {
                  OFFSET 2.54057 -0.884171 1.56538
                  CHANNELS 3 Zrotation Xrotation Yrotation
                  End Site
                  {
                    OFFSET 1.62519 -0.234802 1.16502
                  }
                }
              }
              JOINT lMid1
              {
                OFFSET 8.24714 1.18213 3.41376
                CHANNELS 3 Zrotation Xrotation Yrotation
                JOINT lMid2
                {
                  OFFSET 3.10165 -0.590103 1.0647
                  CHANNELS 3 Zrotation Xrotation Yrotation
                  End Site
                  {
                    OFFSET 2.48547 -0.328903 0.83742
                  }
                }
              }
              JOINT lRing1
              {
                OFFSET 8.82822 0.546677 1.51678
                CHANNELS 3 Zrotation Xrotation Yrotation
                JOINT lRing2
                {
                  OFFSET 2.60934 -0.819778 -0.0198488
                  CHANNELS 3 Zrotation Xrotation Yrotation
                  End Site
                  {
                    OFFSET 2.33842 -0.294052 0.168128
                  }
                }
              }
              JOINT lPinky1
              {
                OFFSET 8.27202 -0.0477905 -0.4584
                CHANNELS 3 Zrotation Xrotation Yrotation
                JOINT lPinky2
                {
                  OFFSET 1.82734 -0.647385 -0.700984
                  CHANNELS 3 Zrotation Xrotation Yrotation
                  End Site
                  {
                    OFFSET 1.69225 -0.51767 -0.607171
                  }
                }
              }
            }
          }
        }
      }
    }
  }
  JOINT rButtock
  {
    OFFSET -8.77824 4.35084 1.2192
    CHANNELS 3 Zrotation Xrotation Yrotation
    JOINT rThigh
    {
      OFFSET 0.0 -1.70687 -2.19456
      CHANNELS 3 Zrotation Xrotation Yrotation
      JOINT rShin
      {
        OFFSET 0.0 -36.8199 0.73152
        CHANNELS 3 Zrotation Xrotation Yrotation
        JOINT rFoot
        {
          OFFSET 0.73152 -45.1104 -5.12064
          CHANNELS 3 Zrotation Xrotation Yrotation
          End Site
          {
            OFFSET -1.1221 -3.69964 12.103
          }
        }
      }
    }
  }
  JOINT lButtock
  {
    OFFSET 8.77824 4.35084 1.2192
    CHANNELS 3 Zrotation Xrotation Yrotation
    JOINT lThigh
    {
      OFFSET 0.0 -1.70687 -2.19456
      CHANNELS 3 Zrotation Xrotation Yrotation
      JOINT lShin
      {
        OFFSET 0.0 -36.8199 0.73152
        CHANNELS 3 Zrotation Xrotation Yrotation
        JOINT lFoot
        {
          OFFSET -0.73152 -45.1104 -5.12064
          CHANNELS 3 Zrotation Xrotation Yrotation
          End Site
          {
            OFFSET 1.1221 -3.69964 12.103
          }
        }
      }
    }
  }
}
MOTION
Frames: 4
Frame Time: 0.00833333
9.466999999999985 82.9639 -5.854999999999997 10.3401 75.7553 10.3288 -8.67183 12.6855 1.56562 -0.376937 -1.24238 0.249394 8.9194 13.6497 4.24188 -9.31947 -26.2153 5.87705 -0.0 0.0 0.0 -0.0 0.0 0.0 6.24654e-15 5.17742e-14 1.05807e-13 53.3769 -3.9855 -8.15696 -15.5054 -8.23595 28.6346 -0.546718 -20.5345 -3.01759 1.1967e-09 -6.36145e-09 1.28082e-09 2.04615e-09 -1.10378e-08 2.23564e-09 1.1967e-09 -6.36145e-09 1.28082e-09 7.73091 5.47488 0.417314 1.1967e-09 -6.36147e-09 1.28082e-09 2.90554 0.965183 0.102902 1.19671e-09 -6.36145e-09 1.28082e-09 10.2786 0.731801 0.0259123 1.1967e-09 -6.36145e-09 1.28083e-09 2.22167 -0.733487 -0.20892 6.28628e-15 5.17659e-14 1.05547e-13 -56.6012 -13.016 -2.63566 10.7522 -4.61113 -19.2198 0.374797 17.1428 -2.48467 -1.20297e-09 2.30982e-09 6.58805e-10 -2.06627e-09 4.01272e-09 1.15966e-09 -1.20297e-09 2.30981e-09 6.58805e-10 -7.73091 5.47488 -0.417314 -1.20297e-09 2.30983e-09 6.58806e-10 -2.90554 0.965183 -0.102902 -1.20298e-09 2.30982e-09 6.58804e-10 -10.2786 0.731801 -0.0259123 -1.20296e-09 2.30984e-09 6.588e-10 -2.22167 -0.733487 0.20892 -2.03217e-16 0.0 -3.88251e-19 1.55973 -22.0825 2.84064 -0.406453 45.3904 1.13668 -12.5803 -19.9382 -26.6286 2.03217e-16 0.0 3.88251e-19 -6.3377 -8.64771 -8.23387 0.0855638 28.4621 -0.878153 17.3584 -25.3211 31.4885
9.73599999999999 82.9029 -5.628099999999996 10.7807 75.8143 10.8321 -9.02513 13.0882 1.24175 -0.380589 -1.28079 0.138421 8.82048 13.6269 4.29471 -9.35426 -26.5307 5.95125 -0.0 0.0 0.0 -0.0 0.0 0.0 -4.01841e-14 4.80567e-13 1.81391e-13 51.1331 -4.87504 -8.57087 -15.5597 -8.28442 28.7484 -0.556232 -20.7025 -3.04457 2.30335e-09 -1.10732e-08 1.94749e-09 3.94853e-09 -1.92135e-08 3.40543e-09 2.30335e-09 -1.10732e-08 1.94749e-09 7.73091 5.47488 0.417314 2.30335e-09 -1.10733e-08 1.94749e-09 2.90554 0.965183 0.102902 2.30335e-09 -1.10732e-08 1.94749e-09 10.2786 0.731801 0.0259123 2.30334e-09 -1.10732e-08 1.9475e-09 2.22167 -0.733487 -0.20892 -4.01275e-14 4.80557e-13 1.81143e-13 -54.7303 -13.9533 -2.84585 10.6811 -4.56569 -19.085 0.379511 17.2517 -2.50139 -1.83497e-09 3.24979e-09 4.19452e-10 -3.16032e-09 5.65198e-09 7.56093e-10 -1.83498e-09 3.24978e-09 4.19452e-10 -7.73091 5.47488 -0.417314 -1.83497e-09 3.2498e-09 4.19452e-10 -2.90554 0.965183 -0.102902 -1.83498e-09 3.24979e-09 4.19452e-10 -10.2786 0.731801 -0.0259123 -1.83496e-09 3.24981e-09 4.19445e-10 -2.22167 -0.733487 0.20892 -2.03217e-16 0.0 -3.88251e-19 1.25447 -22.9583 1.98978 -0.446667 46.8471 1.17969 -12.2832 -19.638 -26.2208 2.03217e-16 0.0 3.88251e-19 -6.38687 -8.46904 -8.07737 0.0815282 28.3362 -0.871229 17.2572 -25.2493 31.4384
10.033999999999992 82.8395 -5.383899999999997 11.3204 75.9149 11.4595 -9.36456 13.4455 0.933762 -0.383395 -1.27007 0.0342325 8.75158 13.5447 4.32421 -9.39272 -26.795 5.97264 -0.0 0.0 0.0 -0.0 0.0 0.0 -9.21541e-14 1.01042e-12 3.12409e-13 48.7595 -5.86713 -9.09629 -15.5812 -8.30367 28.7937 -0.563551 -20.8277 -3.0648 3.17973e-09 -1.73277e-08 2.40545e-09 5.45608e-09 -3.00543e-08 4.21092e-09 3.17973e-09 -1.73277e-08 2.40545e-09 7.73091 5.47488 0.417314 3.17973e-09 -1.73277e-08 2.40545e-09 2.90554 0.965183 0.102902 3.17973e-09 -1.73277e-08 2.40545e-09 10.2786 0.731801 0.0259123 3.17972e-09 -1.73277e-08 2.40546e-09 2.22167 -0.733487 -0.20892 -9.21089e-14 1.0104e-12 3.12163e-13 -52.8201 -14.6951 -3.12727 10.6079 -4.51899 -18.9467 0.368378 17.0072 -2.4637 -2.54805e-09 4.72812e-09 6.27514e-10 -4.38923e-09 8.21732e-09 1.12512e-09 -2.54805e-09 4.72811e-09 6.27516e-10 -7.73091 5.47488 -0.417314 -2.54804e-09 4.72812e-09 6.27514e-10 -2.90554 0.965183 -0.102902 -2.54805e-09 4.72812e-09 6.27515e-10 -10.2786 0.731801 -0.0259123 -2.54804e-09 4.72813e-09 6.27507e-10 -2.22167 -0.733487 0.20892 -2.03217e-16 0.0 -3.88251e-19 0.911742 -23.792 1.09443 -0.487133 48.2101 1.22141 -11.9713 -19.3404 -25.7807 2.03217e-16 0.0 3.88251e-19 -6.48193 -8.26367 -8.07833 0.0766678 28.1721 -0.866073 17.2586 -25.226 31.5165
10.36499999999998 82.7733 -5.123999999999995 12.0291 76.0192 12.2855 -9.66561 13.774 0.623982 -0.391317 -1.22178 -0.0683439 8.69958 13.419 4.3358 -9.43342 -27.0186 5.95407 -0.0 0.0 0.0 -0.0 0.0 0.0 -1.51996e-13 1.65555e-12 4.89162e-13 46.2472 -6.92825 -9.72797 -15.5813 -8.30376 28.7939 -0.569374 -20.9248 -3.08055 3.99973e-09 -2.50137e-08 2.80367e-09 6.86709e-09 -4.33713e-08 4.91234e-09 3.99973e-09 -2.50137e-08 2.80367e-09 7.73091 5.47488 0.417314 3.99973e-09 -2.50137e-08 2.80367e-09 2.90554 0.965183 0.102902 3.99973e-09 -2.50137e-08 2.80367e-09 10.2786 0.731801 0.0259123 3.99973e-09 -2.50137e-08 2.80368e-09 2.22167 -0.733487 -0.20892 -1.5198e-13 1.65554e-12 4.88914e-13 -50.8671 -15.2981 -3.45872 10.5387 -4.47513 -18.8159 0.34587 16.491 -2.38457 -3.38107e-09 6.64883e-09 1.09773e-09 -5.8223e-09 1.15459e-08 1.94778e-09 -3.38107e-09 6.64883e-09 1.09774e-09 -7.73091 5.47488 -0.417314 -3.38106e-09 6.64883e-09 1.09774e-09 -2.90554 0.965183 -0.102902 -3.38108e-09 6.64883e-09 1.09774e-09 -10.2786 0.731801 -0.0259123 -3.38106e-09 6.64884e-09 1.09773e-09 -2.22167 -0.733487 0.20892 -2.03217e-16 0.0 -3.88251e-19 0.570266 -24.5891 0.17905 -0.52849 49.5124 1.26338 -11.6646 -19.0507 -25.3419 2.03217e-16 0.0 3.88251e-19 -6.58961 -8.04128 -8.20153 0.0712549 27.9873 -0.862063 17.3238 -25.2297 31.6773
